<svg width="1145" height="643" viewBox="0 0 1145 643" fill="none" xmlns="http://www.w3.org/2000/svg">
<path d="M145.365 584.157L103.475 131.89H563.779L521.847 584.087L333.346 634.387L145.365 584.157Z" fill="#E44D26"/>
<path d="M333.627 595.939L485.94 555.29L521.779 168.874H333.627V595.939Z" fill="#F16529"/>
<path d="M333.627 336.613H257.371L252.111 279.807H333.627V224.338H189.131L190.506 239.223L204.673 392.078H333.627V336.613ZM333.627 480.665L333.372 480.73L269.199 464.046L265.095 419.812H207.246L215.319 506.905L333.361 538.45L333.627 538.375V480.665Z" fill="#EBEBEB"/>
<path d="M146.303 8.98084H175.584V36.8355H202.376V8.98084H231.663V93.3168H202.376V65.0761H175.59V93.3168H146.303V8.98084ZM270.168 36.9508H244.387V8.98084H325.247V36.9508H299.455V93.3168H270.168V36.9508ZM338.08 8.98084H368.611L387.398 38.6152L406.164 8.98084H436.711V93.3168H407.539V51.5148L387.398 81.5002H386.887L366.731 51.5148V93.3168H338.075V8.98084H338.08ZM451.289 8.98084H480.581V65.4422H521.763V93.3218H451.289V8.98084Z" fill="black"/>
<path d="M333.429 336.613V392.078H404.388L397.7 464.015L333.429 480.715V538.42L451.565 506.905L452.43 497.53L465.971 351.503L467.378 336.613H451.846H333.429ZM333.429 224.338V279.807H472.622L473.773 267.338L476.404 239.223L477.784 224.338H333.429Z" fill="white"/>
<path d="M942.546 30.1827H904.088L944.083 71.9596V91.8479H861.707V68.5605H901.697L861.707 26.7835V6.87519H942.546V30.1827ZM845.374 30.1827H806.916L846.911 71.9596V91.8479H764.53V68.5605H804.525L764.53 26.7835V6.87519H845.374V30.1827ZM749.155 31.1353H707.655V67.5879H749.155V91.8479H678.154V6.87519H749.155V31.1353Z" fill="#131313"/>
<path d="M621.602 585.922L579.43 130.637H1042.8L1000.59 585.847L810.832 636.493L621.602 585.922Z" fill="#1572B6"/>
<path d="M811.124 597.784L964.453 556.864L1000.53 167.866H811.124V597.784Z" fill="#33A9DC"/>
<path d="M811.119 332.814H887.879L893.187 275.635H811.119V219.796H956.583L955.192 234.776L940.937 388.648H811.119V332.814Z" fill="white"/>
<path d="M811.468 477.833L811.212 477.902L746.608 461.107L742.473 416.574H684.248L692.379 504.248L811.202 535.998L811.473 535.923L811.468 477.833Z" fill="#EBEBEB"/>
<path d="M882.952 386.287L875.963 461.068L811.265 477.877V535.973L930.187 504.248L931.062 494.813L941.156 386.287H882.952Z" fill="white"/>
<path d="M811.322 219.796V275.63H671.201L670.035 263.082L667.394 234.776L666.003 219.796H811.322ZM811.119 332.819V388.658H747.332L746.17 376.11L743.525 347.799L742.134 332.819H811.119Z" fill="#EBEBEB"/>
</svg>
